# xmcd
#
# Track frame offsets: 
#        150
#        15373
#        32279
#        49796
#        64152
#        77198
#        102252
#        118955
#        137527
#        166726
#        176546
#        186333
#        199772
#        210794
#        239658
#        250545
#        261072
#        286338
#        295811
#        324161
#
# Disc length: 4536 seconds
#
# Revision: 0
# Processed by: cddbd v1.5.2PL0 Copyright (c) Steve Scherf et al.
# Submitted via: ExactAudioCopy v0.99pb4
#
DISCID=0e11b614
DTITLE=Al Green - Unchained Melodies
DYEAR=2002
DGENRE=Soul
TTITLE0=Oh, Pretty Woman
TTITLE1=I Can't Get Next To You
TTITLE2=Light My Fire
TTITLE3=I'm So Lonesome I Could Try
TTITLE4=My Girl
TTITLE5=Funny How Time Slips Away
TTITLE6=Take Me To The River
TTITLE7=To Sir With Love
TTITLE8=For The Good Times
TTITLE9=I Say A Little Prayer
TTITLE10=Lean On Me
TTITLE11=Summertime
TTITLE12=The Letter
TTITLE13=People Get Ready
TTITLE14=Ain't No Mountain High Enough
TTITLE15=Get Back
TTITLE16=Unchained Melody
TTITLE17=I Want To Hold Your Hand
TTITLE18=How Can You Mend A Broken Heart?
TTITLE19=Amazing Grace
EXTD=
EXTT0=
EXTT1=
EXTT2=
EXTT3=
EXTT4=
EXTT5=
EXTT6=
EXTT7=
EXTT8=
EXTT9=
EXTT10=
EXTT11=
EXTT12=
EXTT13=
EXTT14=
EXTT15=
EXTT16=
EXTT17=
EXTT18=
EXTT19=
PLAYORDER=
